<?xml version="1.0" encoding="utf-8" standalone="no"?>
<!DOCTYPE svg PUBLIC "-//W3C//DTD SVG 1.1//EN"
  "http://www.w3.org/Graphics/SVG/1.1/DTD/svg11.dtd">
<svg xmlns:xlink="http://www.w3.org/1999/xlink" width="624.639687pt" height="388.762812pt" viewBox="0 0 624.639687 388.762812" xmlns="http://www.w3.org/2000/svg" version="1.1">
 <metadata>
  <rdf:RDF xmlns:dc="http://purl.org/dc/elements/1.1/" xmlns:cc="http://creativecommons.org/ns#" xmlns:rdf="http://www.w3.org/1999/02/22-rdf-syntax-ns#">
   <cc:Work>
    <dc:type rdf:resource="http://purl.org/dc/dcmitype/StillImage"/>
    <dc:date>2024-01-31T20:36:31.213851</dc:date>
    <dc:format>image/svg+xml</dc:format>
    <dc:creator>
     <cc:Agent>
      <dc:title>Matplotlib v3.7.1, https://matplotlib.org/</dc:title>
     </cc:Agent>
    </dc:creator>
   </cc:Work>
  </rdf:RDF>
 </metadata>
 <defs>
  <style type="text/css">*{stroke-linejoin: round; stroke-linecap: butt}</style>
 </defs>
 <g id="figure_1">
  <g id="patch_1">
   <path d="M 0 388.762812 
L 624.639687 388.762812 
L 624.639687 0 
L 0 0 
z
" style="fill: #ffffff"/>
  </g>
  <g id="axes_1">
   <g id="patch_2">
    <path d="M 47.987188 344.399062 
L 605.987188 344.399062 
L 605.987188 11.759062 
L 47.987188 11.759062 
z
" style="fill: #ffffff"/>
   </g>
   <g id="matplotlib.axis_1">
    <g id="xtick_1">
     <g id="line2d_1">
      <path d="M 47.987188 344.399062 
L 47.987188 11.759062 
" clip-path="url(#p3c056294c6)" style="fill: none; stroke-dasharray: 2.96,1.28; stroke-dashoffset: 0; stroke: #b0b0b0; stroke-opacity: 0.7; stroke-width: 0.8"/>
     </g>
     <g id="line2d_2">
      <defs>
       <path id="m90f36fb8d6" d="M 0 0 
L 0 3.5 
" style="stroke: #000000; stroke-width: 0.8"/>
      </defs>
      <g>
       <use xlink:href="#m90f36fb8d6" x="47.987188" y="344.399062" style="stroke: #000000; stroke-width: 0.8"/>
      </g>
     </g>
     <g id="text_1">
      <!-- 0 -->
      <g transform="translate(44.169688 360.517187) scale(0.12 -0.12)">
       <defs>
        <path id="DejaVuSans-30" d="M 2034 4250 
Q 1547 4250 1301 3770 
Q 1056 3291 1056 2328 
Q 1056 1369 1301 889 
Q 1547 409 2034 409 
Q 2525 409 2770 889 
Q 3016 1369 3016 2328 
Q 3016 3291 2770 3770 
Q 2525 4250 2034 4250 
z
M 2034 4750 
Q 2819 4750 3233 4129 
Q 3647 3509 3647 2328 
Q 3647 1150 3233 529 
Q 2819 -91 2034 -91 
Q 1250 -91 836 529 
Q 422 1150 422 2328 
Q 422 3509 836 4129 
Q 1250 4750 2034 4750 
z
" transform="scale(0.015625)"/>
       </defs>
       <use xlink:href="#DejaVuSans-30"/>
      </g>
     </g>
    </g>
    <g id="xtick_2">
     <g id="line2d_3">
      <path d="M 103.787188 344.399062 
L 103.787188 11.759062 
" clip-path="url(#p3c056294c6)" style="fill: none; stroke-dasharray: 2.96,1.28; stroke-dashoffset: 0; stroke: #b0b0b0; stroke-opacity: 0.7; stroke-width: 0.8"/>
     </g>
     <g id="line2d_4">
      <g>
       <use xlink:href="#m90f36fb8d6" x="103.787188" y="344.399062" style="stroke: #000000; stroke-width: 0.8"/>
      </g>
     </g>
     <g id="text_2">
      <!-- 10 -->
      <g transform="translate(96.152187 360.517187) scale(0.12 -0.12)">
       <defs>
        <path id="DejaVuSans-31" d="M 794 531 
L 1825 531 
L 1825 4091 
L 703 3866 
L 703 4441 
L 1819 4666 
L 2450 4666 
L 2450 531 
L 3481 531 
L 3481 0 
L 794 0 
L 794 531 
z
" transform="scale(0.015625)"/>
       </defs>
       <use xlink:href="#DejaVuSans-31"/>
       <use xlink:href="#DejaVuSans-30" x="63.623047"/>
      </g>
     </g>
    </g>
    <g id="xtick_3">
     <g id="line2d_5">
      <path d="M 159.587187 344.399062 
L 159.587187 11.759062 
" clip-path="url(#p3c056294c6)" style="fill: none; stroke-dasharray: 2.96,1.28; stroke-dashoffset: 0; stroke: #b0b0b0; stroke-opacity: 0.7; stroke-width: 0.8"/>
     </g>
     <g id="line2d_6">
      <g>
       <use xlink:href="#m90f36fb8d6" x="159.587187" y="344.399062" style="stroke: #000000; stroke-width: 0.8"/>
      </g>
     </g>
     <g id="text_3">
      <!-- 20 -->
      <g transform="translate(151.952188 360.517187) scale(0.12 -0.12)">
       <defs>
        <path id="DejaVuSans-32" d="M 1228 531 
L 3431 531 
L 3431 0 
L 469 0 
L 469 531 
Q 828 903 1448 1529 
Q 2069 2156 2228 2338 
Q 2531 2678 2651 2914 
Q 2772 3150 2772 3378 
Q 2772 3750 2511 3984 
Q 2250 4219 1831 4219 
Q 1534 4219 1204 4116 
Q 875 4013 500 3803 
L 500 4441 
Q 881 4594 1212 4672 
Q 1544 4750 1819 4750 
Q 2544 4750 2975 4387 
Q 3406 4025 3406 3419 
Q 3406 3131 3298 2873 
Q 3191 2616 2906 2266 
Q 2828 2175 2409 1742 
Q 1991 1309 1228 531 
z
" transform="scale(0.015625)"/>
       </defs>
       <use xlink:href="#DejaVuSans-32"/>
       <use xlink:href="#DejaVuSans-30" x="63.623047"/>
      </g>
     </g>
    </g>
    <g id="xtick_4">
     <g id="line2d_7">
      <path d="M 215.387188 344.399062 
L 215.387188 11.759062 
" clip-path="url(#p3c056294c6)" style="fill: none; stroke-dasharray: 2.96,1.28; stroke-dashoffset: 0; stroke: #b0b0b0; stroke-opacity: 0.7; stroke-width: 0.8"/>
     </g>
     <g id="line2d_8">
      <g>
       <use xlink:href="#m90f36fb8d6" x="215.387188" y="344.399062" style="stroke: #000000; stroke-width: 0.8"/>
      </g>
     </g>
     <g id="text_4">
      <!-- 30 -->
      <g transform="translate(207.752188 360.517187) scale(0.12 -0.12)">
       <defs>
        <path id="DejaVuSans-33" d="M 2597 2516 
Q 3050 2419 3304 2112 
Q 3559 1806 3559 1356 
Q 3559 666 3084 287 
Q 2609 -91 1734 -91 
Q 1441 -91 1130 -33 
Q 819 25 488 141 
L 488 750 
Q 750 597 1062 519 
Q 1375 441 1716 441 
Q 2309 441 2620 675 
Q 2931 909 2931 1356 
Q 2931 1769 2642 2001 
Q 2353 2234 1838 2234 
L 1294 2234 
L 1294 2753 
L 1863 2753 
Q 2328 2753 2575 2939 
Q 2822 3125 2822 3475 
Q 2822 3834 2567 4026 
Q 2313 4219 1838 4219 
Q 1578 4219 1281 4162 
Q 984 4106 628 3988 
L 628 4550 
Q 988 4650 1302 4700 
Q 1616 4750 1894 4750 
Q 2613 4750 3031 4423 
Q 3450 4097 3450 3541 
Q 3450 3153 3228 2886 
Q 3006 2619 2597 2516 
z
" transform="scale(0.015625)"/>
       </defs>
       <use xlink:href="#DejaVuSans-33"/>
       <use xlink:href="#DejaVuSans-30" x="63.623047"/>
      </g>
     </g>
    </g>
    <g id="xtick_5">
     <g id="line2d_9">
      <path d="M 271.187187 344.399062 
L 271.187187 11.759062 
" clip-path="url(#p3c056294c6)" style="fill: none; stroke-dasharray: 2.96,1.28; stroke-dashoffset: 0; stroke: #b0b0b0; stroke-opacity: 0.7; stroke-width: 0.8"/>
     </g>
     <g id="line2d_10">
      <g>
       <use xlink:href="#m90f36fb8d6" x="271.187187" y="344.399062" style="stroke: #000000; stroke-width: 0.8"/>
      </g>
     </g>
     <g id="text_5">
      <!-- 40 -->
      <g transform="translate(263.552188 360.517187) scale(0.12 -0.12)">
       <defs>
        <path id="DejaVuSans-34" d="M 2419 4116 
L 825 1625 
L 2419 1625 
L 2419 4116 
z
M 2253 4666 
L 3047 4666 
L 3047 1625 
L 3713 1625 
L 3713 1100 
L 3047 1100 
L 3047 0 
L 2419 0 
L 2419 1100 
L 313 1100 
L 313 1709 
L 2253 4666 
z
" transform="scale(0.015625)"/>
       </defs>
       <use xlink:href="#DejaVuSans-34"/>
       <use xlink:href="#DejaVuSans-30" x="63.623047"/>
      </g>
     </g>
    </g>
    <g id="xtick_6">
     <g id="line2d_11">
      <path d="M 326.987188 344.399062 
L 326.987188 11.759062 
" clip-path="url(#p3c056294c6)" style="fill: none; stroke-dasharray: 2.96,1.28; stroke-dashoffset: 0; stroke: #b0b0b0; stroke-opacity: 0.7; stroke-width: 0.8"/>
     </g>
     <g id="line2d_12">
      <g>
       <use xlink:href="#m90f36fb8d6" x="326.987188" y="344.399062" style="stroke: #000000; stroke-width: 0.8"/>
      </g>
     </g>
     <g id="text_6">
      <!-- 50 -->
      <g transform="translate(319.352188 360.517187) scale(0.12 -0.12)">
       <defs>
        <path id="DejaVuSans-35" d="M 691 4666 
L 3169 4666 
L 3169 4134 
L 1269 4134 
L 1269 2991 
Q 1406 3038 1543 3061 
Q 1681 3084 1819 3084 
Q 2600 3084 3056 2656 
Q 3513 2228 3513 1497 
Q 3513 744 3044 326 
Q 2575 -91 1722 -91 
Q 1428 -91 1123 -41 
Q 819 9 494 109 
L 494 744 
Q 775 591 1075 516 
Q 1375 441 1709 441 
Q 2250 441 2565 725 
Q 2881 1009 2881 1497 
Q 2881 1984 2565 2268 
Q 2250 2553 1709 2553 
Q 1456 2553 1204 2497 
Q 953 2441 691 2322 
L 691 4666 
z
" transform="scale(0.015625)"/>
       </defs>
       <use xlink:href="#DejaVuSans-35"/>
       <use xlink:href="#DejaVuSans-30" x="63.623047"/>
      </g>
     </g>
    </g>
    <g id="xtick_7">
     <g id="line2d_13">
      <path d="M 382.787188 344.399062 
L 382.787188 11.759062 
" clip-path="url(#p3c056294c6)" style="fill: none; stroke-dasharray: 2.96,1.28; stroke-dashoffset: 0; stroke: #b0b0b0; stroke-opacity: 0.7; stroke-width: 0.8"/>
     </g>
     <g id="line2d_14">
      <g>
       <use xlink:href="#m90f36fb8d6" x="382.787188" y="344.399062" style="stroke: #000000; stroke-width: 0.8"/>
      </g>
     </g>
     <g id="text_7">
      <!-- 60 -->
      <g transform="translate(375.152188 360.517187) scale(0.12 -0.12)">
       <defs>
        <path id="DejaVuSans-36" d="M 2113 2584 
Q 1688 2584 1439 2293 
Q 1191 2003 1191 1497 
Q 1191 994 1439 701 
Q 1688 409 2113 409 
Q 2538 409 2786 701 
Q 3034 994 3034 1497 
Q 3034 2003 2786 2293 
Q 2538 2584 2113 2584 
z
M 3366 4563 
L 3366 3988 
Q 3128 4100 2886 4159 
Q 2644 4219 2406 4219 
Q 1781 4219 1451 3797 
Q 1122 3375 1075 2522 
Q 1259 2794 1537 2939 
Q 1816 3084 2150 3084 
Q 2853 3084 3261 2657 
Q 3669 2231 3669 1497 
Q 3669 778 3244 343 
Q 2819 -91 2113 -91 
Q 1303 -91 875 529 
Q 447 1150 447 2328 
Q 447 3434 972 4092 
Q 1497 4750 2381 4750 
Q 2619 4750 2861 4703 
Q 3103 4656 3366 4563 
z
" transform="scale(0.015625)"/>
       </defs>
       <use xlink:href="#DejaVuSans-36"/>
       <use xlink:href="#DejaVuSans-30" x="63.623047"/>
      </g>
     </g>
    </g>
    <g id="xtick_8">
     <g id="line2d_15">
      <path d="M 438.587188 344.399062 
L 438.587188 11.759062 
" clip-path="url(#p3c056294c6)" style="fill: none; stroke-dasharray: 2.96,1.28; stroke-dashoffset: 0; stroke: #b0b0b0; stroke-opacity: 0.7; stroke-width: 0.8"/>
     </g>
     <g id="line2d_16">
      <g>
       <use xlink:href="#m90f36fb8d6" x="438.587188" y="344.399062" style="stroke: #000000; stroke-width: 0.8"/>
      </g>
     </g>
     <g id="text_8">
      <!-- 70 -->
      <g transform="translate(430.952188 360.517187) scale(0.12 -0.12)">
       <defs>
        <path id="DejaVuSans-37" d="M 525 4666 
L 3525 4666 
L 3525 4397 
L 1831 0 
L 1172 0 
L 2766 4134 
L 525 4134 
L 525 4666 
z
" transform="scale(0.015625)"/>
       </defs>
       <use xlink:href="#DejaVuSans-37"/>
       <use xlink:href="#DejaVuSans-30" x="63.623047"/>
      </g>
     </g>
    </g>
    <g id="xtick_9">
     <g id="line2d_17">
      <path d="M 494.387187 344.399062 
L 494.387187 11.759062 
" clip-path="url(#p3c056294c6)" style="fill: none; stroke-dasharray: 2.96,1.28; stroke-dashoffset: 0; stroke: #b0b0b0; stroke-opacity: 0.7; stroke-width: 0.8"/>
     </g>
     <g id="line2d_18">
      <g>
       <use xlink:href="#m90f36fb8d6" x="494.387187" y="344.399062" style="stroke: #000000; stroke-width: 0.8"/>
      </g>
     </g>
     <g id="text_9">
      <!-- 80 -->
      <g transform="translate(486.752187 360.517187) scale(0.12 -0.12)">
       <defs>
        <path id="DejaVuSans-38" d="M 2034 2216 
Q 1584 2216 1326 1975 
Q 1069 1734 1069 1313 
Q 1069 891 1326 650 
Q 1584 409 2034 409 
Q 2484 409 2743 651 
Q 3003 894 3003 1313 
Q 3003 1734 2745 1975 
Q 2488 2216 2034 2216 
z
M 1403 2484 
Q 997 2584 770 2862 
Q 544 3141 544 3541 
Q 544 4100 942 4425 
Q 1341 4750 2034 4750 
Q 2731 4750 3128 4425 
Q 3525 4100 3525 3541 
Q 3525 3141 3298 2862 
Q 3072 2584 2669 2484 
Q 3125 2378 3379 2068 
Q 3634 1759 3634 1313 
Q 3634 634 3220 271 
Q 2806 -91 2034 -91 
Q 1263 -91 848 271 
Q 434 634 434 1313 
Q 434 1759 690 2068 
Q 947 2378 1403 2484 
z
M 1172 3481 
Q 1172 3119 1398 2916 
Q 1625 2713 2034 2713 
Q 2441 2713 2670 2916 
Q 2900 3119 2900 3481 
Q 2900 3844 2670 4047 
Q 2441 4250 2034 4250 
Q 1625 4250 1398 4047 
Q 1172 3844 1172 3481 
z
" transform="scale(0.015625)"/>
       </defs>
       <use xlink:href="#DejaVuSans-38"/>
       <use xlink:href="#DejaVuSans-30" x="63.623047"/>
      </g>
     </g>
    </g>
    <g id="xtick_10">
     <g id="line2d_19">
      <path d="M 550.187187 344.399062 
L 550.187187 11.759062 
" clip-path="url(#p3c056294c6)" style="fill: none; stroke-dasharray: 2.96,1.28; stroke-dashoffset: 0; stroke: #b0b0b0; stroke-opacity: 0.7; stroke-width: 0.8"/>
     </g>
     <g id="line2d_20">
      <g>
       <use xlink:href="#m90f36fb8d6" x="550.187187" y="344.399062" style="stroke: #000000; stroke-width: 0.8"/>
      </g>
     </g>
     <g id="text_10">
      <!-- 90 -->
      <g transform="translate(542.552187 360.517187) scale(0.12 -0.12)">
       <defs>
        <path id="DejaVuSans-39" d="M 703 97 
L 703 672 
Q 941 559 1184 500 
Q 1428 441 1663 441 
Q 2288 441 2617 861 
Q 2947 1281 2994 2138 
Q 2813 1869 2534 1725 
Q 2256 1581 1919 1581 
Q 1219 1581 811 2004 
Q 403 2428 403 3163 
Q 403 3881 828 4315 
Q 1253 4750 1959 4750 
Q 2769 4750 3195 4129 
Q 3622 3509 3622 2328 
Q 3622 1225 3098 567 
Q 2575 -91 1691 -91 
Q 1453 -91 1209 -44 
Q 966 3 703 97 
z
M 1959 2075 
Q 2384 2075 2632 2365 
Q 2881 2656 2881 3163 
Q 2881 3666 2632 3958 
Q 2384 4250 1959 4250 
Q 1534 4250 1286 3958 
Q 1038 3666 1038 3163 
Q 1038 2656 1286 2365 
Q 1534 2075 1959 2075 
z
" transform="scale(0.015625)"/>
       </defs>
       <use xlink:href="#DejaVuSans-39"/>
       <use xlink:href="#DejaVuSans-30" x="63.623047"/>
      </g>
     </g>
    </g>
    <g id="xtick_11">
     <g id="line2d_21">
      <path d="M 605.987188 344.399062 
L 605.987188 11.759062 
" clip-path="url(#p3c056294c6)" style="fill: none; stroke-dasharray: 2.96,1.28; stroke-dashoffset: 0; stroke: #b0b0b0; stroke-opacity: 0.7; stroke-width: 0.8"/>
     </g>
     <g id="line2d_22">
      <g>
       <use xlink:href="#m90f36fb8d6" x="605.987188" y="344.399062" style="stroke: #000000; stroke-width: 0.8"/>
      </g>
     </g>
     <g id="text_11">
      <!-- 100 -->
      <g transform="translate(594.534688 360.517187) scale(0.12 -0.12)">
       <use xlink:href="#DejaVuSans-31"/>
       <use xlink:href="#DejaVuSans-30" x="63.623047"/>
       <use xlink:href="#DejaVuSans-30" x="127.246094"/>
      </g>
     </g>
    </g>
    <g id="text_12">
     <!-- $epoch$ -->
     <g transform="translate(304.112188 378.412812) scale(0.15 -0.15)">
      <defs>
       <path id="DejaVuSans-Oblique-65" d="M 3078 2063 
Q 3088 2113 3092 2166 
Q 3097 2219 3097 2272 
Q 3097 2653 2873 2875 
Q 2650 3097 2266 3097 
Q 1838 3097 1509 2826 
Q 1181 2556 1013 2059 
L 3078 2063 
z
M 3578 1613 
L 903 1613 
Q 884 1494 878 1425 
Q 872 1356 872 1306 
Q 872 872 1139 634 
Q 1406 397 1894 397 
Q 2269 397 2603 481 
Q 2938 566 3225 728 
L 3116 159 
Q 2806 34 2476 -28 
Q 2147 -91 1806 -91 
Q 1078 -91 686 257 
Q 294 606 294 1247 
Q 294 1794 489 2264 
Q 684 2734 1063 3103 
Q 1306 3334 1642 3459 
Q 1978 3584 2356 3584 
Q 2950 3584 3301 3228 
Q 3653 2872 3653 2272 
Q 3653 2128 3634 1964 
Q 3616 1800 3578 1613 
z
" transform="scale(0.015625)"/>
       <path id="DejaVuSans-Oblique-70" d="M 3175 2156 
Q 3175 2616 2975 2859 
Q 2775 3103 2400 3103 
Q 2144 3103 1911 2972 
Q 1678 2841 1497 2591 
Q 1319 2344 1212 1994 
Q 1106 1644 1106 1300 
Q 1106 863 1306 627 
Q 1506 391 1875 391 
Q 2147 391 2380 519 
Q 2613 647 2778 891 
Q 2956 1147 3065 1494 
Q 3175 1841 3175 2156 
z
M 1394 2969 
Q 1625 3272 1939 3428 
Q 2253 3584 2638 3584 
Q 3175 3584 3472 3232 
Q 3769 2881 3769 2247 
Q 3769 1728 3584 1258 
Q 3400 788 3053 416 
Q 2822 169 2531 39 
Q 2241 -91 1919 -91 
Q 1547 -91 1294 64 
Q 1041 219 916 525 
L 556 -1331 
L -19 -1331 
L 922 3500 
L 1497 3500 
L 1394 2969 
z
" transform="scale(0.015625)"/>
       <path id="DejaVuSans-Oblique-6f" d="M 1625 -91 
Q 1009 -91 651 289 
Q 294 669 294 1325 
Q 294 1706 417 2101 
Q 541 2497 738 2766 
Q 1047 3184 1428 3384 
Q 1809 3584 2291 3584 
Q 2888 3584 3255 3212 
Q 3622 2841 3622 2241 
Q 3622 1825 3500 1412 
Q 3378 1000 3181 728 
Q 2875 309 2494 109 
Q 2113 -91 1625 -91 
z
M 891 1344 
Q 891 869 1089 633 
Q 1288 397 1691 397 
Q 2269 397 2648 901 
Q 3028 1406 3028 2181 
Q 3028 2634 2825 2865 
Q 2622 3097 2228 3097 
Q 1903 3097 1650 2945 
Q 1397 2794 1197 2484 
Q 1050 2253 970 1956 
Q 891 1659 891 1344 
z
" transform="scale(0.015625)"/>
       <path id="DejaVuSans-Oblique-63" d="M 3431 3366 
L 3316 2797 
Q 3109 2947 2876 3022 
Q 2644 3097 2394 3097 
Q 2119 3097 1870 3000 
Q 1622 2903 1453 2725 
Q 1184 2453 1037 2087 
Q 891 1722 891 1331 
Q 891 859 1127 628 
Q 1363 397 1844 397 
Q 2081 397 2348 469 
Q 2616 541 2906 684 
L 2797 116 
Q 2547 13 2283 -39 
Q 2019 -91 1741 -91 
Q 1044 -91 669 257 
Q 294 606 294 1253 
Q 294 1797 489 2255 
Q 684 2713 1069 3078 
Q 1331 3328 1684 3456 
Q 2038 3584 2456 3584 
Q 2700 3584 2940 3529 
Q 3181 3475 3431 3366 
z
" transform="scale(0.015625)"/>
       <path id="DejaVuSans-Oblique-68" d="M 3566 2113 
L 3156 0 
L 2578 0 
L 2988 2091 
Q 3016 2238 3031 2350 
Q 3047 2463 3047 2528 
Q 3047 2791 2881 2937 
Q 2716 3084 2419 3084 
Q 1956 3084 1617 2771 
Q 1278 2459 1178 1941 
L 800 0 
L 225 0 
L 1172 4863 
L 1747 4863 
L 1375 2950 
Q 1594 3244 1934 3414 
Q 2275 3584 2650 3584 
Q 3113 3584 3367 3334 
Q 3622 3084 3622 2631 
Q 3622 2519 3608 2391 
Q 3594 2263 3566 2113 
z
" transform="scale(0.015625)"/>
      </defs>
      <use xlink:href="#DejaVuSans-Oblique-65" transform="translate(0 0.015625)"/>
      <use xlink:href="#DejaVuSans-Oblique-70" transform="translate(61.523438 0.015625)"/>
      <use xlink:href="#DejaVuSans-Oblique-6f" transform="translate(125 0.015625)"/>
      <use xlink:href="#DejaVuSans-Oblique-63" transform="translate(186.181641 0.015625)"/>
      <use xlink:href="#DejaVuSans-Oblique-68" transform="translate(241.162109 0.015625)"/>
     </g>
    </g>
   </g>
   <g id="matplotlib.axis_2">
    <g id="ytick_1">
     <g id="line2d_23">
      <path d="M 47.987188 344.399062 
L 605.987188 344.399062 
" clip-path="url(#p3c056294c6)" style="fill: none; stroke-dasharray: 2.96,1.28; stroke-dashoffset: 0; stroke: #b0b0b0; stroke-opacity: 0.7; stroke-width: 0.8"/>
     </g>
     <g id="line2d_24">
      <defs>
       <path id="me03fa57a97" d="M 0 0 
L -3.5 0 
" style="stroke: #000000; stroke-width: 0.8"/>
      </defs>
      <g>
       <use xlink:href="#me03fa57a97" x="47.987188" y="344.399062" style="stroke: #000000; stroke-width: 0.8"/>
      </g>
     </g>
     <g id="text_13">
      <!-- 0 -->
      <g transform="translate(33.352188 348.958125) scale(0.12 -0.12)">
       <use xlink:href="#DejaVuSans-30"/>
      </g>
     </g>
    </g>
    <g id="ytick_2">
     <g id="line2d_25">
      <path d="M 47.987188 311.135062 
L 605.987188 311.135062 
" clip-path="url(#p3c056294c6)" style="fill: none; stroke-dasharray: 2.96,1.28; stroke-dashoffset: 0; stroke: #b0b0b0; stroke-opacity: 0.7; stroke-width: 0.8"/>
     </g>
     <g id="line2d_26">
      <g>
       <use xlink:href="#me03fa57a97" x="47.987188" y="311.135062" style="stroke: #000000; stroke-width: 0.8"/>
      </g>
     </g>
     <g id="text_14">
      <!-- 1 -->
      <g transform="translate(33.352188 315.694125) scale(0.12 -0.12)">
       <use xlink:href="#DejaVuSans-31"/>
      </g>
     </g>
    </g>
    <g id="ytick_3">
     <g id="line2d_27">
      <path d="M 47.987188 277.871062 
L 605.987188 277.871062 
" clip-path="url(#p3c056294c6)" style="fill: none; stroke-dasharray: 2.96,1.28; stroke-dashoffset: 0; stroke: #b0b0b0; stroke-opacity: 0.7; stroke-width: 0.8"/>
     </g>
     <g id="line2d_28">
      <g>
       <use xlink:href="#me03fa57a97" x="47.987188" y="277.871062" style="stroke: #000000; stroke-width: 0.8"/>
      </g>
     </g>
     <g id="text_15">
      <!-- 2 -->
      <g transform="translate(33.352188 282.430125) scale(0.12 -0.12)">
       <use xlink:href="#DejaVuSans-32"/>
      </g>
     </g>
    </g>
    <g id="ytick_4">
     <g id="line2d_29">
      <path d="M 47.987188 244.607062 
L 605.987188 244.607062 
" clip-path="url(#p3c056294c6)" style="fill: none; stroke-dasharray: 2.96,1.28; stroke-dashoffset: 0; stroke: #b0b0b0; stroke-opacity: 0.7; stroke-width: 0.8"/>
     </g>
     <g id="line2d_30">
      <g>
       <use xlink:href="#me03fa57a97" x="47.987188" y="244.607062" style="stroke: #000000; stroke-width: 0.8"/>
      </g>
     </g>
     <g id="text_16">
      <!-- 3 -->
      <g transform="translate(33.352188 249.166125) scale(0.12 -0.12)">
       <use xlink:href="#DejaVuSans-33"/>
      </g>
     </g>
    </g>
    <g id="ytick_5">
     <g id="line2d_31">
      <path d="M 47.987188 211.343062 
L 605.987188 211.343062 
" clip-path="url(#p3c056294c6)" style="fill: none; stroke-dasharray: 2.96,1.28; stroke-dashoffset: 0; stroke: #b0b0b0; stroke-opacity: 0.7; stroke-width: 0.8"/>
     </g>
     <g id="line2d_32">
      <g>
       <use xlink:href="#me03fa57a97" x="47.987188" y="211.343062" style="stroke: #000000; stroke-width: 0.8"/>
      </g>
     </g>
     <g id="text_17">
      <!-- 4 -->
      <g transform="translate(33.352188 215.902125) scale(0.12 -0.12)">
       <use xlink:href="#DejaVuSans-34"/>
      </g>
     </g>
    </g>
    <g id="ytick_6">
     <g id="line2d_33">
      <path d="M 47.987188 178.079062 
L 605.987188 178.079062 
" clip-path="url(#p3c056294c6)" style="fill: none; stroke-dasharray: 2.96,1.28; stroke-dashoffset: 0; stroke: #b0b0b0; stroke-opacity: 0.7; stroke-width: 0.8"/>
     </g>
     <g id="line2d_34">
      <g>
       <use xlink:href="#me03fa57a97" x="47.987188" y="178.079062" style="stroke: #000000; stroke-width: 0.8"/>
      </g>
     </g>
     <g id="text_18">
      <!-- 5 -->
      <g transform="translate(33.352188 182.638125) scale(0.12 -0.12)">
       <use xlink:href="#DejaVuSans-35"/>
      </g>
     </g>
    </g>
    <g id="ytick_7">
     <g id="line2d_35">
      <path d="M 47.987188 144.815062 
L 605.987188 144.815062 
" clip-path="url(#p3c056294c6)" style="fill: none; stroke-dasharray: 2.96,1.28; stroke-dashoffset: 0; stroke: #b0b0b0; stroke-opacity: 0.7; stroke-width: 0.8"/>
     </g>
     <g id="line2d_36">
      <g>
       <use xlink:href="#me03fa57a97" x="47.987188" y="144.815062" style="stroke: #000000; stroke-width: 0.8"/>
      </g>
     </g>
     <g id="text_19">
      <!-- 6 -->
      <g transform="translate(33.352188 149.374125) scale(0.12 -0.12)">
       <use xlink:href="#DejaVuSans-36"/>
      </g>
     </g>
    </g>
    <g id="ytick_8">
     <g id="line2d_37">
      <path d="M 47.987188 111.551062 
L 605.987188 111.551062 
" clip-path="url(#p3c056294c6)" style="fill: none; stroke-dasharray: 2.96,1.28; stroke-dashoffset: 0; stroke: #b0b0b0; stroke-opacity: 0.7; stroke-width: 0.8"/>
     </g>
     <g id="line2d_38">
      <g>
       <use xlink:href="#me03fa57a97" x="47.987188" y="111.551062" style="stroke: #000000; stroke-width: 0.8"/>
      </g>
     </g>
     <g id="text_20">
      <!-- 7 -->
      <g transform="translate(33.352188 116.110125) scale(0.12 -0.12)">
       <use xlink:href="#DejaVuSans-37"/>
      </g>
     </g>
    </g>
    <g id="ytick_9">
     <g id="line2d_39">
      <path d="M 47.987188 78.287062 
L 605.987188 78.287062 
" clip-path="url(#p3c056294c6)" style="fill: none; stroke-dasharray: 2.96,1.28; stroke-dashoffset: 0; stroke: #b0b0b0; stroke-opacity: 0.7; stroke-width: 0.8"/>
     </g>
     <g id="line2d_40">
      <g>
       <use xlink:href="#me03fa57a97" x="47.987188" y="78.287062" style="stroke: #000000; stroke-width: 0.8"/>
      </g>
     </g>
     <g id="text_21">
      <!-- 8 -->
      <g transform="translate(33.352188 82.846125) scale(0.12 -0.12)">
       <use xlink:href="#DejaVuSans-38"/>
      </g>
     </g>
    </g>
    <g id="ytick_10">
     <g id="line2d_41">
      <path d="M 47.987188 45.023062 
L 605.987188 45.023062 
" clip-path="url(#p3c056294c6)" style="fill: none; stroke-dasharray: 2.96,1.28; stroke-dashoffset: 0; stroke: #b0b0b0; stroke-opacity: 0.7; stroke-width: 0.8"/>
     </g>
     <g id="line2d_42">
      <g>
       <use xlink:href="#me03fa57a97" x="47.987188" y="45.023062" style="stroke: #000000; stroke-width: 0.8"/>
      </g>
     </g>
     <g id="text_22">
      <!-- 9 -->
      <g transform="translate(33.352188 49.582125) scale(0.12 -0.12)">
       <use xlink:href="#DejaVuSans-39"/>
      </g>
     </g>
    </g>
    <g id="ytick_11">
     <g id="line2d_43">
      <path d="M 47.987188 11.759062 
L 605.987188 11.759062 
" clip-path="url(#p3c056294c6)" style="fill: none; stroke-dasharray: 2.96,1.28; stroke-dashoffset: 0; stroke: #b0b0b0; stroke-opacity: 0.7; stroke-width: 0.8"/>
     </g>
     <g id="line2d_44">
      <g>
       <use xlink:href="#me03fa57a97" x="47.987188" y="11.759062" style="stroke: #000000; stroke-width: 0.8"/>
      </g>
     </g>
     <g id="text_23">
      <!-- 10 -->
      <g transform="translate(25.717188 16.318125) scale(0.12 -0.12)">
       <use xlink:href="#DejaVuSans-31"/>
       <use xlink:href="#DejaVuSans-30" x="63.623047"/>
      </g>
     </g>
    </g>
    <g id="text_24">
     <!-- $loss$ of real datasets -->
     <g transform="translate(18.597656 253.604062) rotate(-90) scale(0.15 -0.15)">
      <defs>
       <path id="DejaVuSans-Oblique-6c" d="M 1172 4863 
L 1747 4863 
L 800 0 
L 225 0 
L 1172 4863 
z
" transform="scale(0.015625)"/>
       <path id="DejaVuSans-Oblique-73" d="M 3200 3397 
L 3091 2853 
Q 2863 2978 2609 3040 
Q 2356 3103 2088 3103 
Q 1634 3103 1373 2948 
Q 1113 2794 1113 2528 
Q 1113 2219 1719 2053 
Q 1766 2041 1788 2034 
L 1972 1978 
Q 2547 1819 2739 1644 
Q 2931 1469 2931 1166 
Q 2931 609 2489 259 
Q 2047 -91 1331 -91 
Q 1053 -91 747 -37 
Q 441 16 72 128 
L 184 722 
Q 500 559 806 475 
Q 1113 391 1394 391 
Q 1816 391 2080 572 
Q 2344 753 2344 1031 
Q 2344 1331 1650 1516 
L 1591 1531 
L 1394 1581 
Q 956 1697 753 1886 
Q 550 2075 550 2369 
Q 550 2928 970 3256 
Q 1391 3584 2113 3584 
Q 2397 3584 2667 3537 
Q 2938 3491 3200 3397 
z
" transform="scale(0.015625)"/>
       <path id="DejaVuSans-20" transform="scale(0.015625)"/>
       <path id="DejaVuSans-6f" d="M 1959 3097 
Q 1497 3097 1228 2736 
Q 959 2375 959 1747 
Q 959 1119 1226 758 
Q 1494 397 1959 397 
Q 2419 397 2687 759 
Q 2956 1122 2956 1747 
Q 2956 2369 2687 2733 
Q 2419 3097 1959 3097 
z
M 1959 3584 
Q 2709 3584 3137 3096 
Q 3566 2609 3566 1747 
Q 3566 888 3137 398 
Q 2709 -91 1959 -91 
Q 1206 -91 779 398 
Q 353 888 353 1747 
Q 353 2609 779 3096 
Q 1206 3584 1959 3584 
z
" transform="scale(0.015625)"/>
       <path id="DejaVuSans-66" d="M 2375 4863 
L 2375 4384 
L 1825 4384 
Q 1516 4384 1395 4259 
Q 1275 4134 1275 3809 
L 1275 3500 
L 2222 3500 
L 2222 3053 
L 1275 3053 
L 1275 0 
L 697 0 
L 697 3053 
L 147 3053 
L 147 3500 
L 697 3500 
L 697 3744 
Q 697 4328 969 4595 
Q 1241 4863 1831 4863 
L 2375 4863 
z
" transform="scale(0.015625)"/>
       <path id="DejaVuSans-72" d="M 2631 2963 
Q 2534 3019 2420 3045 
Q 2306 3072 2169 3072 
Q 1681 3072 1420 2755 
Q 1159 2438 1159 1844 
L 1159 0 
L 581 0 
L 581 3500 
L 1159 3500 
L 1159 2956 
Q 1341 3275 1631 3429 
Q 1922 3584 2338 3584 
Q 2397 3584 2469 3576 
Q 2541 3569 2628 3553 
L 2631 2963 
z
" transform="scale(0.015625)"/>
       <path id="DejaVuSans-65" d="M 3597 1894 
L 3597 1613 
L 953 1613 
Q 991 1019 1311 708 
Q 1631 397 2203 397 
Q 2534 397 2845 478 
Q 3156 559 3463 722 
L 3463 178 
Q 3153 47 2828 -22 
Q 2503 -91 2169 -91 
Q 1331 -91 842 396 
Q 353 884 353 1716 
Q 353 2575 817 3079 
Q 1281 3584 2069 3584 
Q 2775 3584 3186 3129 
Q 3597 2675 3597 1894 
z
M 3022 2063 
Q 3016 2534 2758 2815 
Q 2500 3097 2075 3097 
Q 1594 3097 1305 2825 
Q 1016 2553 972 2059 
L 3022 2063 
z
" transform="scale(0.015625)"/>
       <path id="DejaVuSans-61" d="M 2194 1759 
Q 1497 1759 1228 1600 
Q 959 1441 959 1056 
Q 959 750 1161 570 
Q 1363 391 1709 391 
Q 2188 391 2477 730 
Q 2766 1069 2766 1631 
L 2766 1759 
L 2194 1759 
z
M 3341 1997 
L 3341 0 
L 2766 0 
L 2766 531 
Q 2569 213 2275 61 
Q 1981 -91 1556 -91 
Q 1019 -91 701 211 
Q 384 513 384 1019 
Q 384 1609 779 1909 
Q 1175 2209 1959 2209 
L 2766 2209 
L 2766 2266 
Q 2766 2663 2505 2880 
Q 2244 3097 1772 3097 
Q 1472 3097 1187 3025 
Q 903 2953 641 2809 
L 641 3341 
Q 956 3463 1253 3523 
Q 1550 3584 1831 3584 
Q 2591 3584 2966 3190 
Q 3341 2797 3341 1997 
z
" transform="scale(0.015625)"/>
       <path id="DejaVuSans-6c" d="M 603 4863 
L 1178 4863 
L 1178 0 
L 603 0 
L 603 4863 
z
" transform="scale(0.015625)"/>
       <path id="DejaVuSans-64" d="M 2906 2969 
L 2906 4863 
L 3481 4863 
L 3481 0 
L 2906 0 
L 2906 525 
Q 2725 213 2448 61 
Q 2172 -91 1784 -91 
Q 1150 -91 751 415 
Q 353 922 353 1747 
Q 353 2572 751 3078 
Q 1150 3584 1784 3584 
Q 2172 3584 2448 3432 
Q 2725 3281 2906 2969 
z
M 947 1747 
Q 947 1113 1208 752 
Q 1469 391 1925 391 
Q 2381 391 2643 752 
Q 2906 1113 2906 1747 
Q 2906 2381 2643 2742 
Q 2381 3103 1925 3103 
Q 1469 3103 1208 2742 
Q 947 2381 947 1747 
z
" transform="scale(0.015625)"/>
       <path id="DejaVuSans-74" d="M 1172 4494 
L 1172 3500 
L 2356 3500 
L 2356 3053 
L 1172 3053 
L 1172 1153 
Q 1172 725 1289 603 
Q 1406 481 1766 481 
L 2356 481 
L 2356 0 
L 1766 0 
Q 1100 0 847 248 
Q 594 497 594 1153 
L 594 3053 
L 172 3053 
L 172 3500 
L 594 3500 
L 594 4494 
L 1172 4494 
z
" transform="scale(0.015625)"/>
       <path id="DejaVuSans-73" d="M 2834 3397 
L 2834 2853 
Q 2591 2978 2328 3040 
Q 2066 3103 1784 3103 
Q 1356 3103 1142 2972 
Q 928 2841 928 2578 
Q 928 2378 1081 2264 
Q 1234 2150 1697 2047 
L 1894 2003 
Q 2506 1872 2764 1633 
Q 3022 1394 3022 966 
Q 3022 478 2636 193 
Q 2250 -91 1575 -91 
Q 1294 -91 989 -36 
Q 684 19 347 128 
L 347 722 
Q 666 556 975 473 
Q 1284 391 1588 391 
Q 1994 391 2212 530 
Q 2431 669 2431 922 
Q 2431 1156 2273 1281 
Q 2116 1406 1581 1522 
L 1381 1569 
Q 847 1681 609 1914 
Q 372 2147 372 2553 
Q 372 3047 722 3315 
Q 1072 3584 1716 3584 
Q 2034 3584 2315 3537 
Q 2597 3491 2834 3397 
z
" transform="scale(0.015625)"/>
      </defs>
      <use xlink:href="#DejaVuSans-Oblique-6c" transform="translate(0 0.015625)"/>
      <use xlink:href="#DejaVuSans-Oblique-6f" transform="translate(27.783203 0.015625)"/>
      <use xlink:href="#DejaVuSans-Oblique-73" transform="translate(88.964844 0.015625)"/>
      <use xlink:href="#DejaVuSans-Oblique-73" transform="translate(141.064453 0.015625)"/>
      <use xlink:href="#DejaVuSans-20" transform="translate(193.164062 0.015625)"/>
      <use xlink:href="#DejaVuSans-6f" transform="translate(224.951172 0.015625)"/>
      <use xlink:href="#DejaVuSans-66" transform="translate(286.132812 0.015625)"/>
      <use xlink:href="#DejaVuSans-20" transform="translate(321.337891 0.015625)"/>
      <use xlink:href="#DejaVuSans-72" transform="translate(353.125 0.015625)"/>
      <use xlink:href="#DejaVuSans-65" transform="translate(394.238281 0.015625)"/>
      <use xlink:href="#DejaVuSans-61" transform="translate(455.761719 0.015625)"/>
      <use xlink:href="#DejaVuSans-6c" transform="translate(517.041016 0.015625)"/>
      <use xlink:href="#DejaVuSans-20" transform="translate(544.824219 0.015625)"/>
      <use xlink:href="#DejaVuSans-64" transform="translate(576.611328 0.015625)"/>
      <use xlink:href="#DejaVuSans-61" transform="translate(640.087891 0.015625)"/>
      <use xlink:href="#DejaVuSans-74" transform="translate(701.367188 0.015625)"/>
      <use xlink:href="#DejaVuSans-61" transform="translate(740.576172 0.015625)"/>
      <use xlink:href="#DejaVuSans-73" transform="translate(801.855469 0.015625)"/>
      <use xlink:href="#DejaVuSans-65" transform="translate(853.955078 0.015625)"/>
      <use xlink:href="#DejaVuSans-74" transform="translate(915.478516 0.015625)"/>
      <use xlink:href="#DejaVuSans-73" transform="translate(954.6875 0.015625)"/>
     </g>
    </g>
   </g>
   <g id="line2d_45">
    <path d="M 47.987188 108.202366 
L 53.567188 129.838259 
L 59.147188 149.497223 
L 64.727188 169.901108 
L 70.307187 191.711365 
L 75.887188 214.924345 
L 81.467188 237.015486 
L 87.047188 255.6557 
L 92.627188 262.575124 
L 98.207188 229.711743 
L 103.787188 53.985016 
L 104.314458 -1 
L 104.314458 -1 
" clip-path="url(#p3c056294c6)" style="fill: none; stroke-dasharray: 3.7,1.6; stroke-dashoffset: 0; stroke: #ff0000"/>
   </g>
   <g id="line2d_46">
    <path d="M 67.530752 -1 
L 70.307187 13.973879 
L 75.887188 42.99301 
L 81.467188 70.583985 
L 87.047188 96.236783 
L 92.627188 119.570135 
L 98.207188 140.271499 
L 103.787188 157.81319 
L 109.367188 170.230804 
L 114.947188 172.08336 
L 120.527188 147.950374 
L 126.107188 53.580027 
L 127.209241 -1 
L 127.209241 -1 
" clip-path="url(#p3c056294c6)" style="fill: none; stroke-dasharray: 3.7,1.6; stroke-dashoffset: 0; stroke: #0000ff"/>
   </g>
   <g id="line2d_47">
    <path d="M 47.987188 27.123039 
L 53.567188 56.727267 
L 59.147188 82.046127 
L 70.307187 131.029862 
L 75.887188 154.768982 
L 81.467188 177.817458 
L 87.047188 199.314201 
L 92.627188 218.248503 
L 98.207188 231.620068 
L 103.787188 230.501683 
L 109.367188 187.246777 
L 114.947188 20.865515 
L 115.196329 -1 
L 115.196329 -1 
" clip-path="url(#p3c056294c6)" style="fill: none; stroke-dasharray: 3.7,1.6; stroke-dashoffset: 0; stroke: #bfbf00"/>
   </g>
   <g id="line2d_48">
    <path d="M 47.987188 91.61485 
L 53.567188 120.026311 
L 59.147188 141.499992 
L 64.727188 161.338775 
L 70.307187 180.505462 
L 81.467188 217.346004 
L 87.047188 234.463698 
L 92.627188 249.537176 
L 98.207188 260.164516 
L 103.787188 258.046989 
L 109.367188 210.478365 
L 114.988824 -1 
L 114.988824 -1 
" clip-path="url(#p3c056294c6)" style="fill: none; stroke-dasharray: 3.7,1.6; stroke-dashoffset: 0; stroke: #008000"/>
   </g>
   <g id="line2d_49">
    <path d="M 47.987188 107.757147 
L 53.567188 134.434599 
L 59.147188 154.737325 
L 64.727188 173.052722 
L 70.307187 190.594589 
L 75.887188 207.633461 
L 81.467188 223.903396 
L 87.047188 237.036768 
L 92.627188 237.187411 
L 98.207188 188.466655 
L 103.040398 -1 
L 103.040398 -1 
" clip-path="url(#p3c056294c6)" style="fill: none; stroke-dasharray: 3.7,1.6; stroke-dashoffset: 0; stroke: #00bfbf"/>
   </g>
   <g id="line2d_50">
    <path d="M 47.987188 66.841785 
L 53.567188 94.930419 
L 59.147188 117.060226 
L 64.727188 136.220077 
L 70.307187 154.689138 
L 75.887188 172.528299 
L 81.467188 189.283096 
L 87.047188 205.521131 
L 92.627188 218.989375 
L 98.207188 231.035484 
L 103.787188 237.396309 
L 109.367188 232.39331 
L 114.947188 199.482268 
L 120.527188 98.146625 
L 122.669724 -1 
L 122.669724 -1 
" clip-path="url(#p3c056294c6)" style="fill: none; stroke-dasharray: 3.7,1.6; stroke-dashoffset: 0; stroke: #000000"/>
   </g>
   <g id="line2d_51">
    <path d="M 47.987188 99.796413 
L 59.147188 118.012551 
L 64.727188 124.84986 
L 70.307187 131.502164 
L 75.887188 136.195346 
L 92.627188 148.992206 
L 98.207188 154.689581 
L 103.787188 157.289428 
L 109.367188 155.1857 
L 114.947188 157.042975 
L 120.527188 161.227903 
L 126.107188 165.847441 
L 131.687187 171.162812 
L 137.267188 178.551112 
L 142.847188 187.465175 
L 148.427188 197.005646 
L 154.007187 206.174382 
L 159.587187 214.402359 
L 165.167188 222.254536 
L 170.747187 232.727503 
L 176.327188 242.820653 
L 181.907188 252.381764 
L 187.487188 261.320094 
L 193.067188 269.469907 
L 198.647188 277.344517 
L 204.227188 284.546312 
L 209.807187 291.129291 
L 215.387188 297.172781 
L 220.967187 302.482897 
L 226.547188 307.153728 
L 232.127188 311.208639 
L 237.707188 314.788028 
L 243.287188 318.117244 
L 248.867188 320.941389 
L 254.447188 323.329781 
L 260.027187 325.37636 
L 265.607188 327.135013 
L 271.187187 328.642983 
L 276.767187 329.943029 
L 282.347188 331.048777 
L 287.927188 332.001587 
L 299.087188 333.54849 
L 310.247187 334.698252 
L 321.407188 335.569569 
L 332.567187 336.189818 
L 349.307187 336.784106 
L 366.047188 337.156634 
L 388.367188 337.472983 
L 416.267188 337.705116 
L 466.487188 337.91867 
L 539.027188 338.054574 
L 555.767188 338.172737 
L 561.347188 338.090143 
L 625.639687 338.357727 
L 625.639687 338.357727 
" clip-path="url(#p3c056294c6)" style="fill: none; stroke: #ff0000; stroke-linecap: square"/>
   </g>
   <g id="line2d_52">
    <path d="M 140.184457 -1 
L 142.847188 5.133971 
L 148.427188 18.70565 
L 154.007187 29.505772 
L 159.587187 38.308225 
L 165.167188 57.532322 
L 170.747187 73.92735 
L 176.327188 89.722261 
L 181.907188 106.521845 
L 187.487188 120.944108 
L 193.067188 133.540715 
L 198.647188 147.614794 
L 204.227188 161.143013 
L 209.807187 173.502192 
L 215.387188 184.825374 
L 220.967187 195.010904 
L 226.547188 204.94418 
L 232.127188 208.102667 
L 237.707188 215.334436 
L 243.287188 222.305513 
L 248.867188 229.796782 
L 254.447188 236.7864 
L 260.027187 243.412396 
L 265.607188 249.401845 
L 271.187187 254.669233 
L 276.767187 257.307956 
L 282.347188 260.318515 
L 293.507187 268.129041 
L 299.087188 271.611396 
L 304.667188 274.50276 
L 310.247187 277.249578 
L 315.827188 279.612998 
L 321.407188 281.68791 
L 326.987188 283.614026 
L 332.567187 285.265098 
L 338.147188 286.673865 
L 349.307187 289.104112 
L 354.887187 290.145658 
L 360.467188 290.968826 
L 366.047188 292.173501 
L 371.627187 292.950642 
L 377.207188 293.558019 
L 388.367188 294.448273 
L 399.527188 295.077469 
L 405.107188 295.078799 
L 421.847188 295.834231 
L 438.587188 296.365377 
L 444.167188 296.25381 
L 449.747187 295.228298 
L 455.327188 295.375441 
L 466.487188 296.041113 
L 472.067187 296.221131 
L 477.647188 292.137297 
L 483.227188 290.762838 
L 494.387187 294.105195 
L 499.967188 295.292361 
L 505.547188 295.994467 
L 516.707188 296.587348 
L 522.287188 296.003096 
L 527.867188 295.262806 
L 539.027188 296.424388 
L 544.607188 295.679281 
L 550.187187 295.653471 
L 566.927188 297.026366 
L 583.667188 297.753108 
L 600.407187 297.803074 
L 622.727188 298.206789 
L 625.639687 298.224233 
L 625.639687 298.224233 
" clip-path="url(#p3c056294c6)" style="fill: none; stroke: #0000ff; stroke-linecap: square"/>
   </g>
   <g id="line2d_53">
    <path d="M 57.013077 -1 
L 59.147188 1.973526 
L 64.727188 10.209792 
L 70.307187 19.119321 
L 75.887188 25.758616 
L 81.467188 31.388681 
L 92.627188 46.422579 
L 103.787188 63.747069 
L 109.367188 74.510068 
L 114.947188 84.965822 
L 120.527188 94.06289 
L 126.107188 102.347213 
L 131.687187 107.055576 
L 137.267188 115.507303 
L 142.847188 125.948367 
L 148.427188 137.194679 
L 154.007187 149.284234 
L 159.587187 160.646674 
L 165.167188 169.40453 
L 170.747187 174.955583 
L 176.327188 181.241571 
L 181.907188 190.172496 
L 198.647188 220.600926 
L 204.227188 229.930913 
L 209.807187 238.647368 
L 215.387188 247.041056 
L 220.967187 255.152343 
L 226.547188 262.715658 
L 232.127188 269.584122 
L 237.707188 275.832112 
L 243.287188 281.50095 
L 248.867188 286.572522 
L 254.447188 291.473231 
L 260.027187 296.106896 
L 265.607188 299.90467 
L 271.187187 303.32874 
L 276.767187 306.206991 
L 287.927188 310.881717 
L 293.507187 312.724423 
L 299.087188 314.402 
L 304.667188 315.894586 
L 310.247187 317.211002 
L 321.407188 319.313972 
L 326.987188 320.283978 
L 332.567187 321.08526 
L 338.147188 321.528865 
L 343.727188 322.223006 
L 354.887187 323.27298 
L 371.627187 324.621103 
L 377.207188 324.977774 
L 382.787188 324.903022 
L 388.367188 325.036269 
L 393.947187 324.913398 
L 399.527188 324.979223 
L 405.107188 325.216813 
L 416.267188 325.558439 
L 433.007187 326.338089 
L 449.747187 326.619859 
L 466.487188 327.07754 
L 494.387187 327.298418 
L 522.287188 327.370922 
L 527.867188 327.286195 
L 533.447187 326.465808 
L 539.027188 323.761961 
L 544.607188 323.495399 
L 555.767188 325.437911 
L 561.347188 325.706211 
L 572.507187 326.480928 
L 578.087188 326.804456 
L 583.667188 326.979273 
L 622.727188 327.493079 
L 625.639687 327.549561 
L 625.639687 327.549561 
" clip-path="url(#p3c056294c6)" style="fill: none; stroke: #bfbf00; stroke-linecap: square"/>
   </g>
   <g id="line2d_54">
    <path d="M 47.987188 103.651262 
L 53.567188 107.043508 
L 59.147188 111.834256 
L 64.727188 117.798574 
L 70.307187 124.583598 
L 75.887188 131.600306 
L 81.467188 138.175901 
L 87.047188 144.160251 
L 92.627188 149.370378 
L 98.207188 152.119271 
L 103.787188 152.804343 
L 109.367188 156.518635 
L 114.947188 161.808775 
L 120.527188 166.757607 
L 126.107188 172.191554 
L 131.687187 177.094538 
L 137.267188 182.170714 
L 142.847188 184.879987 
L 148.427188 185.953217 
L 154.007187 190.308795 
L 159.587187 196.014213 
L 165.167188 201.342949 
L 170.747187 207.166302 
L 176.327188 212.123679 
L 181.907188 217.334701 
L 187.487188 222.376964 
L 193.067188 226.995528 
L 198.647188 230.921305 
L 204.227188 233.811561 
L 209.807187 239.048159 
L 215.387188 243.492459 
L 220.967187 248.188355 
L 226.547188 253.175014 
L 232.127188 257.562393 
L 237.707188 262.501178 
L 243.287188 266.930566 
L 248.867188 271.765469 
L 265.607188 285.165775 
L 271.187187 289.64916 
L 276.767187 293.881106 
L 282.347188 297.865122 
L 287.927188 301.299187 
L 293.507187 304.566384 
L 299.087188 307.593451 
L 304.667188 310.361029 
L 310.247187 312.961489 
L 315.827188 315.416016 
L 321.407188 317.621602 
L 326.987188 319.606384 
L 332.567187 321.376908 
L 338.147188 322.977667 
L 343.727188 324.430223 
L 349.307187 325.728794 
L 360.467188 328.007623 
L 371.627187 329.884412 
L 382.787188 331.395056 
L 393.947187 332.584386 
L 410.687187 333.919485 
L 421.847188 334.632579 
L 438.587188 335.471866 
L 460.907188 336.252462 
L 483.227188 336.810209 
L 511.127187 337.307241 
L 561.347188 337.822552 
L 583.667188 337.861843 
L 605.987188 338.119596 
L 625.639687 338.263461 
L 625.639687 338.263461 
" clip-path="url(#p3c056294c6)" style="fill: none; stroke: #008000; stroke-linecap: square"/>
   </g>
   <g id="line2d_55">
    <path d="M 47.987188 129.162887 
L 53.567188 135.854672 
L 59.147188 143.412652 
L 64.727188 151.393651 
L 75.887188 168.479628 
L 81.467188 176.090474 
L 87.047188 182.471274 
L 92.627188 187.233082 
L 98.207188 192.775673 
L 103.787188 199.798425 
L 109.367188 205.227862 
L 114.947188 211.831411 
L 120.527188 219.257839 
L 126.107188 227.010626 
L 137.267188 238.290063 
L 142.847188 243.127137 
L 148.427188 250.418436 
L 154.007187 258.106788 
L 159.587187 265.486117 
L 165.167188 272.596643 
L 170.747187 279.27498 
L 176.327188 285.289423 
L 181.907188 290.604299 
L 193.067188 300.139667 
L 198.647188 304.537118 
L 204.227188 308.594717 
L 209.807187 312.276799 
L 215.387188 315.640255 
L 220.967187 318.763123 
L 226.547188 321.583198 
L 232.127188 323.983519 
L 243.287188 328.471007 
L 248.867188 330.425075 
L 254.447188 332.088737 
L 260.027187 333.500239 
L 265.607188 334.692962 
L 276.767187 336.566387 
L 282.347188 337.311844 
L 293.507187 338.339848 
L 304.667188 339.138822 
L 315.827188 339.692562 
L 326.987188 340.080445 
L 338.147188 340.333095 
L 360.467188 340.54239 
L 421.847188 340.673067 
L 438.587188 340.670722 
L 455.327188 340.723399 
L 460.907188 340.729922 
L 472.067187 340.471391 
L 483.227188 340.663277 
L 505.547188 340.74633 
L 600.407187 340.848014 
L 625.639687 340.779319 
L 625.639687 340.779319 
" clip-path="url(#p3c056294c6)" style="fill: none; stroke: #00bfbf; stroke-linecap: square"/>
   </g>
   <g id="line2d_56">
    <path d="M 47.987188 49.526942 
L 53.567188 54.205556 
L 59.147188 56.954893 
L 64.727188 60.492419 
L 70.307187 63.21388 
L 75.887188 67.474466 
L 81.467188 70.354214 
L 87.047188 74.876538 
L 92.627188 78.550048 
L 98.207188 80.921704 
L 103.787188 87.028659 
L 109.367188 91.907307 
L 114.947188 95.421159 
L 120.527188 98.14414 
L 126.107188 102.820936 
L 137.267188 109.594291 
L 142.847188 112.671461 
L 148.427188 112.39986 
L 154.007187 111.555187 
L 159.587187 112.328928 
L 165.167188 113.456557 
L 170.747187 115.132764 
L 176.327188 119.819794 
L 181.907188 124.036173 
L 187.487188 128.559944 
L 193.067188 133.990524 
L 198.647188 137.694321 
L 204.227188 141.0867 
L 209.807187 145.305088 
L 215.387188 150.476895 
L 220.967187 156.432448 
L 226.547188 161.620168 
L 232.127188 166.143407 
L 243.287188 178.728496 
L 248.867188 185.326124 
L 260.027187 197.730103 
L 265.607188 204.158604 
L 276.767187 216.224365 
L 282.347188 221.700122 
L 287.927188 226.395112 
L 293.507187 231.244448 
L 299.087188 235.520502 
L 304.667188 240.123361 
L 310.247187 244.357749 
L 315.827188 247.281488 
L 321.407188 251.207405 
L 332.567187 258.530718 
L 338.147188 261.893721 
L 343.727188 265.08793 
L 349.307187 268.410495 
L 354.887187 271.585454 
L 366.047188 278.533325 
L 371.627187 281.810797 
L 377.207188 284.938571 
L 382.787188 287.699956 
L 393.947187 292.989201 
L 399.527188 295.293482 
L 405.107188 297.409588 
L 416.267188 301.191502 
L 421.847188 302.731309 
L 427.427188 303.986256 
L 433.007187 305.115223 
L 444.167188 308.020002 
L 449.747187 309.089004 
L 455.327188 309.655603 
L 460.907188 310.855871 
L 472.067187 312.785358 
L 488.807187 315.447511 
L 499.967188 316.925319 
L 505.547188 317.312879 
L 511.127187 317.532688 
L 550.187187 321.065185 
L 561.347188 321.725073 
L 572.507187 322.283891 
L 578.087188 322.412074 
L 605.987188 323.841543 
L 625.639687 324.657393 
L 625.639687 324.657393 
" clip-path="url(#p3c056294c6)" style="fill: none; stroke: #000000; stroke-linecap: square"/>
   </g>
   <g id="patch_3">
    <path d="M 47.987188 344.399062 
L 47.987188 11.759062 
" style="fill: none; stroke: #000000; stroke-width: 0.8; stroke-linejoin: miter; stroke-linecap: square"/>
   </g>
   <g id="patch_4">
    <path d="M 605.987188 344.399062 
L 605.987188 11.759062 
" style="fill: none; stroke: #000000; stroke-width: 0.8; stroke-linejoin: miter; stroke-linecap: square"/>
   </g>
   <g id="patch_5">
    <path d="M 47.987188 344.399062 
L 605.987188 344.399062 
" style="fill: none; stroke: #000000; stroke-width: 0.8; stroke-linejoin: miter; stroke-linecap: square"/>
   </g>
   <g id="patch_6">
    <path d="M 47.987188 11.759062 
L 605.987188 11.759062 
" style="fill: none; stroke: #000000; stroke-width: 0.8; stroke-linejoin: miter; stroke-linecap: square"/>
   </g>
   <g id="patch_7">
    <path d="M 213.720224 66.460551 
Q 178.785559 72.360784 143.850895 78.261017 
L 144.517035 82.20516 
Q 138.102111 80.246111 131.687187 78.287062 
Q 137.102902 74.329898 142.518616 70.372733 
L 143.184756 74.316875 
Q 178.11942 68.416642 213.054084 62.516409 
L 213.720224 66.460551 
z
" style="fill: #ff0000; stroke: #000000; stroke-linecap: round"/>
   </g>
   <g id="text_25">
    <!-- Dashed lines indicate the use of FOAdam -->
    <g transform="translate(215.387188 61.655062) scale(0.12 -0.12)">
     <defs>
      <path id="DejaVuSans-44" d="M 1259 4147 
L 1259 519 
L 2022 519 
Q 2988 519 3436 956 
Q 3884 1394 3884 2338 
Q 3884 3275 3436 3711 
Q 2988 4147 2022 4147 
L 1259 4147 
z
M 628 4666 
L 1925 4666 
Q 3281 4666 3915 4102 
Q 4550 3538 4550 2338 
Q 4550 1131 3912 565 
Q 3275 0 1925 0 
L 628 0 
L 628 4666 
z
" transform="scale(0.015625)"/>
      <path id="DejaVuSans-68" d="M 3513 2113 
L 3513 0 
L 2938 0 
L 2938 2094 
Q 2938 2591 2744 2837 
Q 2550 3084 2163 3084 
Q 1697 3084 1428 2787 
Q 1159 2491 1159 1978 
L 1159 0 
L 581 0 
L 581 4863 
L 1159 4863 
L 1159 2956 
Q 1366 3272 1645 3428 
Q 1925 3584 2291 3584 
Q 2894 3584 3203 3211 
Q 3513 2838 3513 2113 
z
" transform="scale(0.015625)"/>
      <path id="DejaVuSans-69" d="M 603 3500 
L 1178 3500 
L 1178 0 
L 603 0 
L 603 3500 
z
M 603 4863 
L 1178 4863 
L 1178 4134 
L 603 4134 
L 603 4863 
z
" transform="scale(0.015625)"/>
      <path id="DejaVuSans-6e" d="M 3513 2113 
L 3513 0 
L 2938 0 
L 2938 2094 
Q 2938 2591 2744 2837 
Q 2550 3084 2163 3084 
Q 1697 3084 1428 2787 
Q 1159 2491 1159 1978 
L 1159 0 
L 581 0 
L 581 3500 
L 1159 3500 
L 1159 2956 
Q 1366 3272 1645 3428 
Q 1925 3584 2291 3584 
Q 2894 3584 3203 3211 
Q 3513 2838 3513 2113 
z
" transform="scale(0.015625)"/>
      <path id="DejaVuSans-63" d="M 3122 3366 
L 3122 2828 
Q 2878 2963 2633 3030 
Q 2388 3097 2138 3097 
Q 1578 3097 1268 2742 
Q 959 2388 959 1747 
Q 959 1106 1268 751 
Q 1578 397 2138 397 
Q 2388 397 2633 464 
Q 2878 531 3122 666 
L 3122 134 
Q 2881 22 2623 -34 
Q 2366 -91 2075 -91 
Q 1284 -91 818 406 
Q 353 903 353 1747 
Q 353 2603 823 3093 
Q 1294 3584 2113 3584 
Q 2378 3584 2631 3529 
Q 2884 3475 3122 3366 
z
" transform="scale(0.015625)"/>
      <path id="DejaVuSans-75" d="M 544 1381 
L 544 3500 
L 1119 3500 
L 1119 1403 
Q 1119 906 1312 657 
Q 1506 409 1894 409 
Q 2359 409 2629 706 
Q 2900 1003 2900 1516 
L 2900 3500 
L 3475 3500 
L 3475 0 
L 2900 0 
L 2900 538 
Q 2691 219 2414 64 
Q 2138 -91 1772 -91 
Q 1169 -91 856 284 
Q 544 659 544 1381 
z
M 1991 3584 
L 1991 3584 
z
" transform="scale(0.015625)"/>
      <path id="DejaVuSans-46" d="M 628 4666 
L 3309 4666 
L 3309 4134 
L 1259 4134 
L 1259 2759 
L 3109 2759 
L 3109 2228 
L 1259 2228 
L 1259 0 
L 628 0 
L 628 4666 
z
" transform="scale(0.015625)"/>
      <path id="DejaVuSans-4f" d="M 2522 4238 
Q 1834 4238 1429 3725 
Q 1025 3213 1025 2328 
Q 1025 1447 1429 934 
Q 1834 422 2522 422 
Q 3209 422 3611 934 
Q 4013 1447 4013 2328 
Q 4013 3213 3611 3725 
Q 3209 4238 2522 4238 
z
M 2522 4750 
Q 3503 4750 4090 4092 
Q 4678 3434 4678 2328 
Q 4678 1225 4090 567 
Q 3503 -91 2522 -91 
Q 1538 -91 948 565 
Q 359 1222 359 2328 
Q 359 3434 948 4092 
Q 1538 4750 2522 4750 
z
" transform="scale(0.015625)"/>
      <path id="DejaVuSans-41" d="M 2188 4044 
L 1331 1722 
L 3047 1722 
L 2188 4044 
z
M 1831 4666 
L 2547 4666 
L 4325 0 
L 3669 0 
L 3244 1197 
L 1141 1197 
L 716 0 
L 50 0 
L 1831 4666 
z
" transform="scale(0.015625)"/>
      <path id="DejaVuSans-6d" d="M 3328 2828 
Q 3544 3216 3844 3400 
Q 4144 3584 4550 3584 
Q 5097 3584 5394 3201 
Q 5691 2819 5691 2113 
L 5691 0 
L 5113 0 
L 5113 2094 
Q 5113 2597 4934 2840 
Q 4756 3084 4391 3084 
Q 3944 3084 3684 2787 
Q 3425 2491 3425 1978 
L 3425 0 
L 2847 0 
L 2847 2094 
Q 2847 2600 2669 2842 
Q 2491 3084 2119 3084 
Q 1678 3084 1418 2786 
Q 1159 2488 1159 1978 
L 1159 0 
L 581 0 
L 581 3500 
L 1159 3500 
L 1159 2956 
Q 1356 3278 1631 3431 
Q 1906 3584 2284 3584 
Q 2666 3584 2933 3390 
Q 3200 3197 3328 2828 
z
" transform="scale(0.015625)"/>
     </defs>
     <use xlink:href="#DejaVuSans-44"/>
     <use xlink:href="#DejaVuSans-61" x="77.001953"/>
     <use xlink:href="#DejaVuSans-73" x="138.28125"/>
     <use xlink:href="#DejaVuSans-68" x="190.380859"/>
     <use xlink:href="#DejaVuSans-65" x="253.759766"/>
     <use xlink:href="#DejaVuSans-64" x="315.283203"/>
     <use xlink:href="#DejaVuSans-20" x="378.759766"/>
     <use xlink:href="#DejaVuSans-6c" x="410.546875"/>
     <use xlink:href="#DejaVuSans-69" x="438.330078"/>
     <use xlink:href="#DejaVuSans-6e" x="466.113281"/>
     <use xlink:href="#DejaVuSans-65" x="529.492188"/>
     <use xlink:href="#DejaVuSans-73" x="591.015625"/>
     <use xlink:href="#DejaVuSans-20" x="643.115234"/>
     <use xlink:href="#DejaVuSans-69" x="674.902344"/>
     <use xlink:href="#DejaVuSans-6e" x="702.685547"/>
     <use xlink:href="#DejaVuSans-64" x="766.064453"/>
     <use xlink:href="#DejaVuSans-69" x="829.541016"/>
     <use xlink:href="#DejaVuSans-63" x="857.324219"/>
     <use xlink:href="#DejaVuSans-61" x="912.304688"/>
     <use xlink:href="#DejaVuSans-74" x="973.583984"/>
     <use xlink:href="#DejaVuSans-65" x="1012.792969"/>
     <use xlink:href="#DejaVuSans-20" x="1074.316406"/>
     <use xlink:href="#DejaVuSans-74" x="1106.103516"/>
     <use xlink:href="#DejaVuSans-68" x="1145.3125"/>
     <use xlink:href="#DejaVuSans-65" x="1208.691406"/>
     <use xlink:href="#DejaVuSans-20" x="1270.214844"/>
     <use xlink:href="#DejaVuSans-75" x="1302.001953"/>
     <use xlink:href="#DejaVuSans-73" x="1365.380859"/>
     <use xlink:href="#DejaVuSans-65" x="1417.480469"/>
     <use xlink:href="#DejaVuSans-20" x="1479.003906"/>
     <use xlink:href="#DejaVuSans-6f" x="1510.791016"/>
     <use xlink:href="#DejaVuSans-66" x="1571.972656"/>
     <use xlink:href="#DejaVuSans-20" x="1607.177734"/>
     <use xlink:href="#DejaVuSans-46" x="1638.964844"/>
     <use xlink:href="#DejaVuSans-4f" x="1696.484375"/>
     <use xlink:href="#DejaVuSans-41" x="1773.445312"/>
     <use xlink:href="#DejaVuSans-64" x="1840.103516"/>
     <use xlink:href="#DejaVuSans-61" x="1903.580078"/>
     <use xlink:href="#DejaVuSans-6d" x="1964.859375"/>
    </g>
   </g>
   <g id="patch_8">
    <path d="M 353.943723 233.41073 
Q 343.300655 240.01947 332.657587 246.628209 
L 334.767661 250.026384 
Q 328.087424 250.643123 321.407188 251.259862 
Q 324.922314 245.545861 328.437441 239.83186 
L 330.547514 243.230035 
Q 341.190582 236.621295 351.83365 230.012556 
L 353.943723 233.41073 
z
" style="fill: #ff0000; stroke: #000000; stroke-linecap: round"/>
   </g>
   <g id="text_26">
    <!-- Solid lines indicate the use of IFOAdam -->
    <g transform="translate(354.887187 227.975062) scale(0.12 -0.12)">
     <defs>
      <path id="DejaVuSans-53" d="M 3425 4513 
L 3425 3897 
Q 3066 4069 2747 4153 
Q 2428 4238 2131 4238 
Q 1616 4238 1336 4038 
Q 1056 3838 1056 3469 
Q 1056 3159 1242 3001 
Q 1428 2844 1947 2747 
L 2328 2669 
Q 3034 2534 3370 2195 
Q 3706 1856 3706 1288 
Q 3706 609 3251 259 
Q 2797 -91 1919 -91 
Q 1588 -91 1214 -16 
Q 841 59 441 206 
L 441 856 
Q 825 641 1194 531 
Q 1563 422 1919 422 
Q 2459 422 2753 634 
Q 3047 847 3047 1241 
Q 3047 1584 2836 1778 
Q 2625 1972 2144 2069 
L 1759 2144 
Q 1053 2284 737 2584 
Q 422 2884 422 3419 
Q 422 4038 858 4394 
Q 1294 4750 2059 4750 
Q 2388 4750 2728 4690 
Q 3069 4631 3425 4513 
z
" transform="scale(0.015625)"/>
      <path id="DejaVuSans-49" d="M 628 4666 
L 1259 4666 
L 1259 0 
L 628 0 
L 628 4666 
z
" transform="scale(0.015625)"/>
     </defs>
     <use xlink:href="#DejaVuSans-53"/>
     <use xlink:href="#DejaVuSans-6f" x="63.476562"/>
     <use xlink:href="#DejaVuSans-6c" x="124.658203"/>
     <use xlink:href="#DejaVuSans-69" x="152.441406"/>
     <use xlink:href="#DejaVuSans-64" x="180.224609"/>
     <use xlink:href="#DejaVuSans-20" x="243.701172"/>
     <use xlink:href="#DejaVuSans-6c" x="275.488281"/>
     <use xlink:href="#DejaVuSans-69" x="303.271484"/>
     <use xlink:href="#DejaVuSans-6e" x="331.054688"/>
     <use xlink:href="#DejaVuSans-65" x="394.433594"/>
     <use xlink:href="#DejaVuSans-73" x="455.957031"/>
     <use xlink:href="#DejaVuSans-20" x="508.056641"/>
     <use xlink:href="#DejaVuSans-69" x="539.84375"/>
     <use xlink:href="#DejaVuSans-6e" x="567.626953"/>
     <use xlink:href="#DejaVuSans-64" x="631.005859"/>
     <use xlink:href="#DejaVuSans-69" x="694.482422"/>
     <use xlink:href="#DejaVuSans-63" x="722.265625"/>
     <use xlink:href="#DejaVuSans-61" x="777.246094"/>
     <use xlink:href="#DejaVuSans-74" x="838.525391"/>
     <use xlink:href="#DejaVuSans-65" x="877.734375"/>
     <use xlink:href="#DejaVuSans-20" x="939.257812"/>
     <use xlink:href="#DejaVuSans-74" x="971.044922"/>
     <use xlink:href="#DejaVuSans-68" x="1010.253906"/>
     <use xlink:href="#DejaVuSans-65" x="1073.632812"/>
     <use xlink:href="#DejaVuSans-20" x="1135.15625"/>
     <use xlink:href="#DejaVuSans-75" x="1166.943359"/>
     <use xlink:href="#DejaVuSans-73" x="1230.322266"/>
     <use xlink:href="#DejaVuSans-65" x="1282.421875"/>
     <use xlink:href="#DejaVuSans-20" x="1343.945312"/>
     <use xlink:href="#DejaVuSans-6f" x="1375.732422"/>
     <use xlink:href="#DejaVuSans-66" x="1436.914062"/>
     <use xlink:href="#DejaVuSans-20" x="1472.119141"/>
     <use xlink:href="#DejaVuSans-49" x="1503.90625"/>
     <use xlink:href="#DejaVuSans-46" x="1533.398438"/>
     <use xlink:href="#DejaVuSans-4f" x="1590.917969"/>
     <use xlink:href="#DejaVuSans-41" x="1667.878906"/>
     <use xlink:href="#DejaVuSans-64" x="1734.537109"/>
     <use xlink:href="#DejaVuSans-61" x="1798.013672"/>
     <use xlink:href="#DejaVuSans-6d" x="1859.292969"/>
    </g>
   </g>
   <g id="legend_1">
    <g id="patch_9">
     <path d="M 535.073125 195.896562 
L 598.987188 195.896562 
Q 600.987188 195.896562 600.987188 193.896562 
L 600.987188 18.759062 
Q 600.987188 16.759062 598.987188 16.759062 
L 535.073125 16.759062 
Q 533.073125 16.759062 533.073125 18.759062 
L 533.073125 193.896562 
Q 533.073125 195.896562 535.073125 195.896562 
z
" style="fill: #ffffff; opacity: 0.8; stroke: #cccccc; stroke-linejoin: miter"/>
    </g>
    <g id="line2d_57">
     <path d="M 537.073125 24.8575 
L 547.073125 24.8575 
L 557.073125 24.8575 
" style="fill: none; stroke-dasharray: 3.7,1.6; stroke-dashoffset: 0; stroke: #ff0000"/>
    </g>
    <g id="text_27">
     <!-- DJI -->
     <g transform="translate(565.073125 28.3575) scale(0.1 -0.1)">
      <defs>
       <path id="DejaVuSans-4a" d="M 628 4666 
L 1259 4666 
L 1259 325 
Q 1259 -519 939 -900 
Q 619 -1281 -91 -1281 
L -331 -1281 
L -331 -750 
L -134 -750 
Q 284 -750 456 -515 
Q 628 -281 628 325 
L 628 4666 
z
" transform="scale(0.015625)"/>
      </defs>
      <use xlink:href="#DejaVuSans-44"/>
      <use xlink:href="#DejaVuSans-4a" x="77.001953"/>
      <use xlink:href="#DejaVuSans-49" x="106.494141"/>
     </g>
    </g>
    <g id="line2d_58">
     <path d="M 537.073125 39.535625 
L 547.073125 39.535625 
L 557.073125 39.535625 
" style="fill: none; stroke-dasharray: 3.7,1.6; stroke-dashoffset: 0; stroke: #0000ff"/>
    </g>
    <g id="text_28">
     <!-- FTSE -->
     <g transform="translate(565.073125 43.035625) scale(0.1 -0.1)">
      <defs>
       <path id="DejaVuSans-54" d="M -19 4666 
L 3928 4666 
L 3928 4134 
L 2272 4134 
L 2272 0 
L 1638 0 
L 1638 4134 
L -19 4134 
L -19 4666 
z
" transform="scale(0.015625)"/>
       <path id="DejaVuSans-45" d="M 628 4666 
L 3578 4666 
L 3578 4134 
L 1259 4134 
L 1259 2753 
L 3481 2753 
L 3481 2222 
L 1259 2222 
L 1259 531 
L 3634 531 
L 3634 0 
L 628 0 
L 628 4666 
z
" transform="scale(0.015625)"/>
      </defs>
      <use xlink:href="#DejaVuSans-46"/>
      <use xlink:href="#DejaVuSans-54" x="55.769531"/>
      <use xlink:href="#DejaVuSans-53" x="116.853516"/>
      <use xlink:href="#DejaVuSans-45" x="180.330078"/>
     </g>
    </g>
    <g id="line2d_59">
     <path d="M 537.073125 54.21375 
L 547.073125 54.21375 
L 557.073125 54.21375 
" style="fill: none; stroke-dasharray: 3.7,1.6; stroke-dashoffset: 0; stroke: #bfbf00"/>
    </g>
    <g id="text_29">
     <!-- GDAXI -->
     <g transform="translate(565.073125 57.71375) scale(0.1 -0.1)">
      <defs>
       <path id="DejaVuSans-47" d="M 3809 666 
L 3809 1919 
L 2778 1919 
L 2778 2438 
L 4434 2438 
L 4434 434 
Q 4069 175 3628 42 
Q 3188 -91 2688 -91 
Q 1594 -91 976 548 
Q 359 1188 359 2328 
Q 359 3472 976 4111 
Q 1594 4750 2688 4750 
Q 3144 4750 3555 4637 
Q 3966 4525 4313 4306 
L 4313 3634 
Q 3963 3931 3569 4081 
Q 3175 4231 2741 4231 
Q 1884 4231 1454 3753 
Q 1025 3275 1025 2328 
Q 1025 1384 1454 906 
Q 1884 428 2741 428 
Q 3075 428 3337 486 
Q 3600 544 3809 666 
z
" transform="scale(0.015625)"/>
       <path id="DejaVuSans-58" d="M 403 4666 
L 1081 4666 
L 2241 2931 
L 3406 4666 
L 4084 4666 
L 2584 2425 
L 4184 0 
L 3506 0 
L 2194 1984 
L 872 0 
L 191 0 
L 1856 2491 
L 403 4666 
z
" transform="scale(0.015625)"/>
      </defs>
      <use xlink:href="#DejaVuSans-47"/>
      <use xlink:href="#DejaVuSans-44" x="77.490234"/>
      <use xlink:href="#DejaVuSans-41" x="152.742188"/>
      <use xlink:href="#DejaVuSans-58" x="221.150391"/>
      <use xlink:href="#DejaVuSans-49" x="289.65625"/>
     </g>
    </g>
    <g id="line2d_60">
     <path d="M 537.073125 68.891875 
L 547.073125 68.891875 
L 557.073125 68.891875 
" style="fill: none; stroke-dasharray: 3.7,1.6; stroke-dashoffset: 0; stroke: #008000"/>
    </g>
    <g id="text_30">
     <!-- GSPC -->
     <g transform="translate(565.073125 72.391875) scale(0.1 -0.1)">
      <defs>
       <path id="DejaVuSans-50" d="M 1259 4147 
L 1259 2394 
L 2053 2394 
Q 2494 2394 2734 2622 
Q 2975 2850 2975 3272 
Q 2975 3691 2734 3919 
Q 2494 4147 2053 4147 
L 1259 4147 
z
M 628 4666 
L 2053 4666 
Q 2838 4666 3239 4311 
Q 3641 3956 3641 3272 
Q 3641 2581 3239 2228 
Q 2838 1875 2053 1875 
L 1259 1875 
L 1259 0 
L 628 0 
L 628 4666 
z
" transform="scale(0.015625)"/>
       <path id="DejaVuSans-43" d="M 4122 4306 
L 4122 3641 
Q 3803 3938 3442 4084 
Q 3081 4231 2675 4231 
Q 1875 4231 1450 3742 
Q 1025 3253 1025 2328 
Q 1025 1406 1450 917 
Q 1875 428 2675 428 
Q 3081 428 3442 575 
Q 3803 722 4122 1019 
L 4122 359 
Q 3791 134 3420 21 
Q 3050 -91 2638 -91 
Q 1578 -91 968 557 
Q 359 1206 359 2328 
Q 359 3453 968 4101 
Q 1578 4750 2638 4750 
Q 3056 4750 3426 4639 
Q 3797 4528 4122 4306 
z
" transform="scale(0.015625)"/>
      </defs>
      <use xlink:href="#DejaVuSans-47"/>
      <use xlink:href="#DejaVuSans-53" x="77.490234"/>
      <use xlink:href="#DejaVuSans-50" x="140.966797"/>
      <use xlink:href="#DejaVuSans-43" x="201.269531"/>
     </g>
    </g>
    <g id="line2d_61">
     <path d="M 537.073125 83.57 
L 547.073125 83.57 
L 557.073125 83.57 
" style="fill: none; stroke-dasharray: 3.7,1.6; stroke-dashoffset: 0; stroke: #00bfbf"/>
    </g>
    <g id="text_31">
     <!-- IXIC -->
     <g transform="translate(565.073125 87.07) scale(0.1 -0.1)">
      <use xlink:href="#DejaVuSans-49"/>
      <use xlink:href="#DejaVuSans-58" x="29.492188"/>
      <use xlink:href="#DejaVuSans-49" x="97.998047"/>
      <use xlink:href="#DejaVuSans-43" x="127.490234"/>
     </g>
    </g>
    <g id="line2d_62">
     <path d="M 537.073125 98.248125 
L 547.073125 98.248125 
L 557.073125 98.248125 
" style="fill: none; stroke-dasharray: 3.7,1.6; stroke-dashoffset: 0; stroke: #000000"/>
    </g>
    <g id="text_32">
     <!-- N225 -->
     <g transform="translate(565.073125 101.748125) scale(0.1 -0.1)">
      <defs>
       <path id="DejaVuSans-4e" d="M 628 4666 
L 1478 4666 
L 3547 763 
L 3547 4666 
L 4159 4666 
L 4159 0 
L 3309 0 
L 1241 3903 
L 1241 0 
L 628 0 
L 628 4666 
z
" transform="scale(0.015625)"/>
      </defs>
      <use xlink:href="#DejaVuSans-4e"/>
      <use xlink:href="#DejaVuSans-32" x="74.804688"/>
      <use xlink:href="#DejaVuSans-32" x="138.427734"/>
      <use xlink:href="#DejaVuSans-35" x="202.050781"/>
     </g>
    </g>
    <g id="line2d_63">
     <path d="M 537.073125 112.92625 
L 547.073125 112.92625 
L 557.073125 112.92625 
" style="fill: none; stroke: #ff0000; stroke-linecap: square"/>
    </g>
    <g id="text_33">
     <!-- DJI -->
     <g transform="translate(565.073125 116.42625) scale(0.1 -0.1)">
      <use xlink:href="#DejaVuSans-44"/>
      <use xlink:href="#DejaVuSans-4a" x="77.001953"/>
      <use xlink:href="#DejaVuSans-49" x="106.494141"/>
     </g>
    </g>
    <g id="line2d_64">
     <path d="M 537.073125 127.604375 
L 547.073125 127.604375 
L 557.073125 127.604375 
" style="fill: none; stroke: #0000ff; stroke-linecap: square"/>
    </g>
    <g id="text_34">
     <!-- FTSE -->
     <g transform="translate(565.073125 131.104375) scale(0.1 -0.1)">
      <use xlink:href="#DejaVuSans-46"/>
      <use xlink:href="#DejaVuSans-54" x="55.769531"/>
      <use xlink:href="#DejaVuSans-53" x="116.853516"/>
      <use xlink:href="#DejaVuSans-45" x="180.330078"/>
     </g>
    </g>
    <g id="line2d_65">
     <path d="M 537.073125 142.2825 
L 547.073125 142.2825 
L 557.073125 142.2825 
" style="fill: none; stroke: #bfbf00; stroke-linecap: square"/>
    </g>
    <g id="text_35">
     <!-- GDAXI -->
     <g transform="translate(565.073125 145.7825) scale(0.1 -0.1)">
      <use xlink:href="#DejaVuSans-47"/>
      <use xlink:href="#DejaVuSans-44" x="77.490234"/>
      <use xlink:href="#DejaVuSans-41" x="152.742188"/>
      <use xlink:href="#DejaVuSans-58" x="221.150391"/>
      <use xlink:href="#DejaVuSans-49" x="289.65625"/>
     </g>
    </g>
    <g id="line2d_66">
     <path d="M 537.073125 156.960625 
L 547.073125 156.960625 
L 557.073125 156.960625 
" style="fill: none; stroke: #008000; stroke-linecap: square"/>
    </g>
    <g id="text_36">
     <!-- GSPC -->
     <g transform="translate(565.073125 160.460625) scale(0.1 -0.1)">
      <use xlink:href="#DejaVuSans-47"/>
      <use xlink:href="#DejaVuSans-53" x="77.490234"/>
      <use xlink:href="#DejaVuSans-50" x="140.966797"/>
      <use xlink:href="#DejaVuSans-43" x="201.269531"/>
     </g>
    </g>
    <g id="line2d_67">
     <path d="M 537.073125 171.63875 
L 547.073125 171.63875 
L 557.073125 171.63875 
" style="fill: none; stroke: #00bfbf; stroke-linecap: square"/>
    </g>
    <g id="text_37">
     <!-- IXIC -->
     <g transform="translate(565.073125 175.13875) scale(0.1 -0.1)">
      <use xlink:href="#DejaVuSans-49"/>
      <use xlink:href="#DejaVuSans-58" x="29.492188"/>
      <use xlink:href="#DejaVuSans-49" x="97.998047"/>
      <use xlink:href="#DejaVuSans-43" x="127.490234"/>
     </g>
    </g>
    <g id="line2d_68">
     <path d="M 537.073125 186.316875 
L 547.073125 186.316875 
L 557.073125 186.316875 
" style="fill: none; stroke: #000000; stroke-linecap: square"/>
    </g>
    <g id="text_38">
     <!-- N225 -->
     <g transform="translate(565.073125 189.816875) scale(0.1 -0.1)">
      <use xlink:href="#DejaVuSans-4e"/>
      <use xlink:href="#DejaVuSans-32" x="74.804688"/>
      <use xlink:href="#DejaVuSans-32" x="138.427734"/>
      <use xlink:href="#DejaVuSans-35" x="202.050781"/>
     </g>
    </g>
   </g>
  </g>
 </g>
 <defs>
  <clipPath id="p3c056294c6">
   <rect x="47.987188" y="11.759062" width="558" height="332.64"/>
  </clipPath>
 </defs>
</svg>
